<svg id="Capa_1" enable-background="new 0 0 512 512" height="512" viewBox="0 0 512 512" width="512" xmlns="http://www.w3.org/2000/svg"><g><path d="m365.015 58.266-197.805 70.527c-15.605 5.561-32.767-2.579-38.329-18.188-5.564-15.607 2.581-32.768 18.188-38.329l197.802-70.527c15.606-5.562 32.768 2.58 38.331 18.186 5.563 15.608-2.581 32.768-18.187 38.331z" fill="#f4f4f6"/><path d="m196 407v45c0 33.084 26.916 60 60 60s60-26.916 60-60v-45z" fill="#08475e"/><path d="m256.041 407v104.999c33.065-.022 59.959-26.929 59.959-59.999v-45z" fill="#05303d"/><path d="m383.159 83.699c5.563 15.607-2.58 32.769-18.188 38.33l-197.803 70.526c-15.605 5.563-32.768-2.579-38.33-18.187-5.562-15.607 2.58-32.768 18.188-38.331l197.803-70.525c15.607-5.563 32.768 2.58 38.33 18.187z" fill="#d0d5f4"/><path d="m166 247.612v54.391h60v-71.625z" fill="#989dec"/><path d="m383.117 147.463c-5.561-15.607-22.724-23.751-38.329-18.188l-197.804 70.526c-15.607 5.561-23.751 22.725-18.187 38.331 5.562 15.607 22.723 23.749 38.329 18.187l132.94-47.41-.061 93.054 60 .04.075-114.483 4.849-1.727c15.608-5.562 23.752-22.724 18.188-38.33z" fill="#f4f4f6"/><path d="m121 302v44.666c0 49.811 40.523 90.334 90.333 90.334h89.334c49.81 0 90.333-40.523 90.333-90.334v-44.666z" fill="#0a617d"/><path d="m383.202 19.935c-5.562-15.606-22.724-23.748-38.331-18.186l-88.83 31.673v63.698l108.974-38.854c15.606-5.563 23.75-22.723 18.187-38.331z" fill="#d0d5f4"/><path d="m383.159 83.699c-5.562-15.607-22.723-23.75-38.33-18.187l-88.788 31.658v63.698l108.931-38.839c15.607-5.561 23.751-22.722 18.187-38.33z" fill="#989dec"/><path d="m383.117 147.463c-5.561-15.607-22.724-23.751-38.329-18.188l-88.747 31.643v63.692l44.026-15.701-.061 93.054 60 .04.075-114.483 4.849-1.727c15.607-5.562 23.751-22.724 18.187-38.33z" fill="#d0d5f4"/><path d="m256.041 302v135h44.626c49.81 0 90.333-40.523 90.333-90.334v-44.666z" fill="#08475e"/></g></svg>