<svg id="Layer_1" enable-background="new 0 0 512 512" height="512" viewBox="0 0 512 512" width="512" xmlns="http://www.w3.org/2000/svg"><g><path d="m91.411 448.481 43.357 31.461c35.749 20.397 77.127 32.058 121.232 32.058s85.483-11.661 121.232-32.058l43.357-31.461c49.393-44.822 80.412-109.529 80.412-181.482 0-135.31-109.691-245.001-245.001-245.001s-245.001 109.691-245.001 245.001c0 71.953 31.019 136.659 80.412 181.482z" fill="#86d8fc"/><path d="m91.411 448.481c13.216 11.994 27.752 22.558 43.357 31.461v-72.179h-43.357z" fill="#d3dcfb"/><path d="m377.232 479.942c15.606-8.904 30.141-19.468 43.357-31.461v-40.717h-43.357z" fill="#d3dcfb"/><path d="m114.077 465.004v-20.547c0-7.676 6.222-13.898 13.898-13.898h6.792v-22.795h-43.356v40.717c7.214 6.547 14.834 12.65 22.793 18.307-.076-.589-.127-1.183-.127-1.784z" fill="#bec8f7"/><path d="m399.899 444.457c0-7.676 6.222-13.898 13.898-13.898h6.792v-22.795h-43.357v72.178c7.836-4.471 15.402-9.361 22.667-14.641z" fill="#bec8f7"/><path d="m448.337 0h-384.674c-.001 0-.002 0-.002 0h84.033c-.014.919-.298 1.837-.88 2.617-2.361 3.169-5.073 8.79-.63 14.46 1.291 1.648 1.361 3.936.078 5.59-1.626 2.096-2.786 5.259.237 8.875 1.288 1.541 1.35 3.744.232 5.413-2.619 3.91-5.565 11.229 1.294 19.073.721.824 1.132 1.878 1.132 2.973v2.628c0 1.283-.549 2.505-1.508 3.358l-6.096 5.417c-2.095 1.862-1.992 5.167.215 6.894l18.219 14.264c1.675 1.311 2.201 3.618 1.258 5.526l-10.545 21.355c-.263.533-.626 1.003-1.073 1.394-2.866 2.506-13.713 13.519-1.925 27.939 1.326 1.622 1.389 3.907.129 5.581-3.04 4.039-7.082 12.101-.562 21.252 1.399 1.964 1.074 4.642-.791 6.17-4.642 3.805-11.39 11.583-7.194 22.478.206.535.329 1.102.329 1.675v58.642c0 .485-.076.96-.231 1.42-1.037 3.087-4.682 16.66 8.042 25.053 1.528 1.008 2.333 2.822 1.971 4.616-1.202 5.961-1.909 19.279 13.33 26.079 1.604.716 2.625 2.325 2.625 4.081v29.687c0 1.016-.346 1.995-.975 2.793-2.247 2.853-7.169 10.702-1.318 18.997 1.056 1.498 1.203 3.5.19 5.027-1.355 2.044-2.443 5.293.061 9.184.988 1.535 1.034 3.489.016 5.004-2.306 3.432-5.048 9.889.809 16.274.331.361.588.774.79 1.211h283.415c22.519 0 40.839-18.32 40.839-40.839v-331.322c-.001-22.519-18.322-40.839-40.84-40.839z" fill="#e9efff"/><path d="m149.694 0h-86.031c-22.518 0-40.839 18.32-40.839 40.839v331.322c0 22.519 18.32 40.839 40.839 40.839h103.259c-.202-.437-.459-.85-.79-1.211-5.856-6.385-3.115-12.842-.809-16.274 1.018-1.515.972-3.47-.016-5.004-2.504-3.89-1.416-7.14-.061-9.184 1.013-1.527.867-3.53-.19-5.027-5.851-8.295-.929-16.144 1.318-18.997.629-.798.975-1.777.975-2.793v-29.687c0-1.756-1.021-3.365-2.625-4.081-15.239-6.801-14.532-20.118-13.33-26.079.362-1.794-.443-3.608-1.971-4.616-12.724-8.392-9.079-21.966-8.042-25.053.154-.46.231-.935.231-1.42v-58.642c0-.573-.122-1.14-.329-1.675-4.197-10.895 2.552-18.673 7.194-22.478 1.864-1.528 2.189-4.207.791-6.17-6.519-9.151-2.478-17.213.562-21.252 1.26-1.674 1.197-3.959-.129-5.581-11.787-14.42-.94-25.433 1.925-27.939.447-.391.81-.861 1.073-1.394l10.545-21.354c.942-1.908.417-4.214-1.258-5.526l-18.218-14.263c-2.207-1.728-2.31-5.033-.215-6.894l6.096-5.417c.959-.853 1.508-2.074 1.508-3.358v-2.628c0-1.095-.411-2.149-1.132-2.973-6.859-7.843-3.913-15.163-1.294-19.073 1.118-1.669 1.057-3.872-.232-5.413-3.023-3.616-1.863-6.779-.237-8.875 1.283-1.654 1.213-3.942-.078-5.59-4.443-5.67-1.731-11.291.63-14.46.582-.782.866-1.7.88-2.619z" fill="#bec8f7"/><path d="m63.663 27c-7.631 0-13.839 6.208-13.839 13.839v331.322c0 7.631 6.208 13.839 13.839 13.839h384.674c7.631 0 13.839-6.208 13.839-13.839v-331.322c0-7.631-6.208-13.839-13.839-13.839z" fill="#6279dd"/><path d="m63.663 27c-7.631 0-13.839 6.208-13.839 13.839v331.322c0 7.631 6.208 13.839 13.839 13.839h100.149c-.045-1.89.647-3.486 1.434-4.673 1.013-1.527.867-3.53-.19-5.027-5.851-8.295-.929-16.144 1.318-18.997.629-.798.975-1.777.975-2.793v-29.687c0-1.756-1.021-3.365-2.625-4.081-15.239-6.801-14.532-20.118-13.33-26.079.362-1.794-.443-3.608-1.971-4.616-12.724-8.392-9.079-21.966-8.042-25.053.154-.46.231-.935.231-1.42v-58.642c0-.573-.122-1.14-.329-1.675-4.197-10.895 2.552-18.673 7.194-22.478 1.864-1.528 2.189-4.207.791-6.17-6.519-9.151-2.478-17.213.562-21.252 1.26-1.674 1.197-3.959-.129-5.581-11.787-14.42-.94-25.433 1.925-27.939.447-.391.81-.861 1.073-1.394l10.545-21.354c.942-1.908.417-4.214-1.258-5.526l-18.218-14.263c-2.207-1.728-2.31-5.033-.215-6.894l6.096-5.417c.959-.853 1.508-2.074 1.508-3.358v-2.628c0-1.095-.411-2.149-1.132-2.973-6.859-7.843-3.913-15.163-1.294-19.073 1.118-1.669 1.057-3.872-.232-5.413-1.358-1.625-1.868-3.157-1.874-4.543h-82.962z" fill="#4e5fc6"/><g><path d="m448.337 393h-384.674c-11.491 0-20.839-9.349-20.839-20.839v-331.322c0-11.49 9.348-20.839 20.839-20.839h384.674c11.491 0 20.839 9.349 20.839 20.839v331.322c0 11.491-9.349 20.839-20.839 20.839zm-384.674-359c-3.771 0-6.839 3.068-6.839 6.839v331.322c0 3.771 3.068 6.839 6.839 6.839h384.674c3.771 0 6.839-3.068 6.839-6.839v-331.322c0-3.77-3.068-6.839-6.839-6.839z" fill="#8199ef"/></g><path d="m165.923 379h-102.26c-3.771 0-6.839-3.069-6.839-6.839v-331.322c0-3.77 3.068-6.839 6.839-6.839h85.83c-.074-.882-.396-1.742-.995-2.458-3.023-3.616-1.863-6.779-.237-8.875.613-.79.908-1.726.918-2.667h-85.516c-11.491 0-20.839 9.348-20.839 20.839v331.322c0 11.49 9.348 20.839 20.839 20.839h102.403c-.012-.863-.268-1.728-.758-2.489-2.504-3.89-1.416-7.14-.061-9.184.468-.706.678-1.514.676-2.327z" fill="#6279dd"/><path d="m338.067 320.133h-164.134c-7.699 0-13.997 6.299-13.997 13.998v9.7c0 7.699 6.299 13.998 13.997 13.998h164.135c7.699 0 13.998-6.299 13.998-13.998v-9.7c-.001-7.7-6.3-13.998-13.999-13.998z" fill="#8199ef"/><path d="m82.324 176.133v101.523c0 7.699 6.299 13.998 13.997 13.998h113.046c7.699 0 13.998-6.299 13.998-13.998v-101.523z" fill="#e9efff"/><path d="m82.324 277.656c0 7.699 6.299 13.998 13.997 13.998h54.584c-.353-.633-.852-1.191-1.482-1.607-12.724-8.392-9.079-21.966-8.042-25.053.154-.46.231-.935.231-1.42v-58.642c0-.573-.122-1.14-.329-1.675-4.197-10.895 2.552-18.673 7.194-22.478 1.414-1.159 1.938-2.978 1.501-4.646h-67.654z" fill="#bec8f7"/><path d="m209.368 150.612h-113.046c-7.698 0-13.997 6.299-13.997 13.998v13.523h141.042v-13.523c-.001-7.699-6.3-13.998-13.999-13.998z" fill="#ff4155"/><path d="m149.268 174.609c-6.519-9.151-2.478-17.213.562-21.252.616-.818.911-1.783.901-2.745h-54.41c-7.698 0-13.997 6.299-13.997 13.998v13.523h67.711c.226-1.188-.008-2.46-.767-3.524z" fill="#e80054"/><g><g><path d="m376.129 119.084h-19.657c-4.142 0-7.5-3.357-7.5-7.5v-46.65c0-4.143 3.358-7.5 7.5-7.5h19.657c4.142 0 7.5 3.357 7.5 7.5s-3.358 7.5-7.5 7.5h-12.157v31.65h12.157c4.142 0 7.5 3.357 7.5 7.5s-3.358 7.5-7.5 7.5z" fill="#e9efff"/></g><g><path d="m374.68 95.759h-18.207c-4.142 0-7.5-3.357-7.5-7.5s3.358-7.5 7.5-7.5h18.207c4.142 0 7.5 3.357 7.5 7.5s-3.358 7.5-7.5 7.5z" fill="#e9efff"/></g></g><g><g><path d="m207.861 119.299c-17.116 0-31.04-13.925-31.04-31.04s13.924-31.04 31.04-31.04c6.221 0 12.225 1.835 17.361 5.307 3.432 2.319 4.333 6.981 2.014 10.413s-6.981 4.335-10.414 2.015c-2.647-1.789-5.746-2.734-8.962-2.734-8.845 0-16.04 7.195-16.04 16.04s7.195 16.04 16.04 16.04c3.196 0 5.864-.934 7.932-2.774.402-.358.79-.76 1.151-1.19 2.662-3.173 7.393-3.588 10.566-.928 3.174 2.662 3.589 7.393.927 10.566-.826.984-1.723 1.91-2.667 2.752-4.829 4.301-11.021 6.573-17.908 6.573z" fill="#e9efff"/></g></g><g><g><path d="m152.277 119.299c-8.521 0-16.526-3.441-21.964-9.442-2.782-3.069-2.549-7.812.52-10.594 3.07-2.781 7.812-2.548 10.594.521 2.562 2.827 6.618 4.515 10.85 4.515 4.036 0 6.345-2.399 6.634-4.021.335-1.878-2.436-3.613-5.142-4.611-7.351-2.712-13.881-5.618-14.156-5.74-.361-.161-.709-.351-1.04-.566-5.497-3.584-8.329-9.866-7.392-16.396.993-6.918 6.025-12.546 13.133-14.688 10.93-3.292 21.108 1.934 25.4 5.541 3.17 2.665 3.58 7.397.915 10.567-2.652 3.153-7.348 3.575-10.518.956-.221-.176-5.716-4.438-11.471-2.701-1.501.452-2.453 1.347-2.612 2.455-.062.429-.023.999.435 1.457 1.866.813 7.002 3.015 12.497 5.042 12.814 4.727 16.004 14.112 14.717 21.32-1.694 9.495-10.695 16.385-21.4 16.385z" fill="#e9efff"/></g></g><g><g><path d="m333.299 119.299c-2.081 0-4.15-.86-5.633-2.545l-19.777-22.471c-2.737-3.109-2.435-7.849.675-10.585 3.109-2.736 7.849-2.435 10.585.675l19.777 22.471c2.737 3.109 2.435 7.849-.675 10.585-1.425 1.254-3.192 1.87-4.952 1.87z" fill="#e9efff"/></g><g><path d="m307.842 119.299c-4.142 0-7.5-3.357-7.5-7.5v-47.08c0-4.143 3.358-7.5 7.5-7.5s7.5 3.357 7.5 7.5v47.08c0 4.143-3.358 7.5-7.5 7.5z" fill="#e9efff"/></g><g><path d="m307.943 96.744c-4.121 0-7.473-3.326-7.499-7.452 0 0-.056-8.919-.056-12.338 0-2.792-.031-12.211-.031-12.211-.006-1.993.781-3.907 2.188-5.319 1.407-1.411 3.318-2.205 5.312-2.205h12.511c11.264 0 20.428 8.854 20.428 19.735s-9.164 19.735-20.428 19.735c-3.46 0-12.378.055-12.378.055-.016 0-.032 0-.047 0zm7.436-24.525c.005 1.935.009 3.748.009 4.735 0 1.146.006 2.912.015 4.75 1.913-.008 3.765-.015 4.965-.015 2.892 0 5.428-2.213 5.428-4.735s-2.536-4.735-5.428-4.735z" fill="#e9efff"/></g></g><g><path d="m262.362 119.299c-17.116 0-31.04-13.925-31.04-31.04s13.924-31.04 31.04-31.04 31.04 13.925 31.04 31.04-13.925 31.04-31.04 31.04zm0-47.08c-8.845 0-16.04 7.195-16.04 16.04s7.195 16.04 16.04 16.04 16.04-7.195 16.04-16.04-7.196-16.04-16.04-16.04z" fill="#e9efff"/></g><g><path d="m263 228.632h-14c-4.142 0-7.5-3.357-7.5-7.5s3.358-7.5 7.5-7.5h14c4.142 0 7.5 3.357 7.5 7.5s-3.358 7.5-7.5 7.5z" fill="#8199ef"/></g><g><g><path d="m124.292 271.702c-13.422 0-24.342-10.92-24.342-24.342v-26.934c0-13.422 10.92-24.342 24.342-24.342s24.342 10.92 24.342 24.342v26.934c0 13.422-10.92 24.342-24.342 24.342zm0-60.618c-5.151 0-9.342 4.19-9.342 9.342v26.934c0 5.151 4.191 9.342 9.342 9.342s9.342-4.191 9.342-9.342v-26.934c0-5.151-4.191-9.342-9.342-9.342z" fill="#e80054"/></g></g><g><g><path d="m181.398 271.702c-13.422 0-24.342-10.92-24.342-24.342v-26.934c0-13.422 10.92-24.342 24.342-24.342s24.342 10.92 24.342 24.342v26.934c0 13.422-10.92 24.342-24.342 24.342zm0-60.618c-5.151 0-9.342 4.19-9.342 9.342v26.934c0 5.151 4.191 9.342 9.342 9.342s9.342-4.191 9.342-9.342v-26.934c0-5.151-4.191-9.342-9.342-9.342z" fill="#ff4155"/></g></g><g><path d="m312.523 451.26h-113.046c-11.854 0-21.498-9.644-21.498-21.497v-16.763c0-4.143 3.358-7.5 7.5-7.5s7.5 3.357 7.5 7.5v16.763c0 3.582 2.915 6.497 6.498 6.497h113.046c3.583 0 6.498-2.915 6.498-6.497v-16.763c0-4.143 3.358-7.5 7.5-7.5s7.5 3.357 7.5 7.5v16.763c0 11.854-9.644 21.497-21.498 21.497z" fill="#6279dd"/></g><g><path d="m231.125 451.26c-4.142 0-7.5-3.357-7.5-7.5v-30.76c0-4.143 3.358-7.5 7.5-7.5s7.5 3.357 7.5 7.5v30.76c0 4.143-3.358 7.5-7.5 7.5z" fill="#8199ef"/></g><g><path d="m280.875 451.26c-4.142 0-7.5-3.357-7.5-7.5v-30.76c0-4.143 3.358-7.5 7.5-7.5s7.5 3.357 7.5 7.5v30.76c0 4.143-3.358 7.5-7.5 7.5z" fill="#8199ef"/></g><path d="m256 512c32.762 0 64.017-6.439 92.58-18.109-1.176-15.182-13.958-27.243-29.428-27.243h-126.304c-15.47 0-28.252 12.061-29.428 27.243 28.563 11.67 59.818 18.109 92.58 18.109z" fill="#b0ebff"/><path d="m189.481 207.725c-1.539 2.425-1.51 5.487-.043 7.957.826 1.39 1.301 3.012 1.301 4.744v16.055c0 4.142 3.358 7.5 7.5 7.5 4.142 0 7.5-3.358 7.5-7.5v-16.055c0-4.577-1.271-8.861-3.478-12.521-2.885-4.787-9.784-4.9-12.78-.18z" fill="#ff7186"/><path d="m288.634 176.133v101.523c0 7.699 6.299 13.998 13.997 13.998h113.046c7.699 0 13.998-6.299 13.998-13.998v-101.523z" fill="#e9efff"/><path d="m288.634 277.656c0 7.699 6.299 13.998 13.997 13.998h54.584c-.353-.633-.852-1.191-1.482-1.607-12.724-8.392-9.079-21.966-8.042-25.053.154-.46.231-.935.231-1.42v-58.642c0-.573-.122-1.14-.329-1.675-4.197-10.895 2.552-18.673 7.194-22.478 1.414-1.159 1.938-2.978 1.501-4.646h-67.654z" fill="#bec8f7"/><path d="m415.678 150.612h-113.047c-7.698 0-13.997 6.299-13.997 13.998v13.523h141.042v-13.523c0-7.699-6.3-13.998-13.998-13.998z" fill="#56c2ff"/><path d="m355.577 174.609c-6.519-9.151-2.478-17.213.562-21.252.616-.818.911-1.783.901-2.745h-54.41c-7.698 0-13.997 6.299-13.997 13.998v13.523h67.711c.227-1.188-.008-2.46-.767-3.524z" fill="#1e9ef4"/><g><g><path d="m330.602 271.702c-13.422 0-24.342-10.92-24.342-24.342v-26.934c0-13.422 10.92-24.342 24.342-24.342s24.342 10.92 24.342 24.342v26.934c-.001 13.422-10.921 24.342-24.342 24.342zm0-60.618c-5.151 0-9.342 4.19-9.342 9.342v26.934c0 5.151 4.191 9.342 9.342 9.342s9.342-4.191 9.342-9.342v-26.934c-.001-5.151-4.191-9.342-9.342-9.342z" fill="#1e9ef4"/></g></g><g><g><path d="m387.708 271.702c-13.422 0-24.342-10.92-24.342-24.342v-26.934c0-13.422 10.92-24.342 24.342-24.342s24.342 10.92 24.342 24.342v26.934c-.001 13.422-10.921 24.342-24.342 24.342zm0-60.618c-5.151 0-9.342 4.19-9.342 9.342v26.934c0 5.151 4.191 9.342 9.342 9.342s9.342-4.191 9.342-9.342v-26.934c-.001-5.151-4.192-9.342-9.342-9.342z" fill="#56c2ff"/></g></g><path d="m395.791 207.725c-1.539 2.425-1.51 5.487-.043 7.957.826 1.39 1.302 3.012 1.302 4.744v16.055c0 4.142 3.358 7.5 7.5 7.5 4.142 0 7.5-3.358 7.5-7.5v-16.055c0-4.577-1.271-8.861-3.478-12.521-2.887-4.787-9.785-4.9-12.781-.18z" fill="#86d8fc"/></g></svg>